<svg data-noselect="" viewBox="0 0 400 300" width="400" height="300" preserveAspectRatio="none" version="1.1" xmlns="http://www.w3.org/2000/svg" style="background: rgba(255, 255, 255, 0);"><defs><filter id="filter_shadow_shapge_lF1MQJ5LxW" width="1000%" height="1000%"><feGaussianBlur in="SourceAlpha" stdDeviation="3"></feGaussianBlur> <feOffset dx="18" dy="18" result="offsetblur"></feOffset><feComponentTransfer><feFuncA type="linear" slope="0.4"></feFuncA></feComponentTransfer><feMerge><feMergeNode></feMergeNode><feMergeNode in="SourceGraphic"></feMergeNode></feMerge></filter></defs> <g id="shapge_lF1MQJ5LxW" transform="translate(16.017084890549945,22.532016213407452) rotate(0,344.6,238.74753363228785) scale(0.5339028296849972,0.5339028296849972)" filter="url(#filter_shadow_shapge_lF1MQJ5LxW)" style="cursor: move; opacity: 1;"><g><svg xmlns="http://www.w3.org/2000/svg" version="1.1" xmlns:xlink="http://www.w3.org/1999/xlink" overflow="hidden" style="top:0; left: 0" width="689.2" height="477.4950672645757" viewBox="0 0 454.2 314.68116591928253" preserveAspectRatio="none" data-parent="shapge_lF1MQJ5LxW"><rect fill="rgba(0,0,0,0)" width="454.2" height="314.68116591928253"></rect> <rect opacity="0"></rect><g transform="translate(12.729820627802695,0)" data-width="428.7403587443946"><path fill="#000000" d="M9.42 0.51L9.42 0.51L9.42 0.51Q9.67-10.69 11.20-39.08L11.20-39.08L11.20-39.08Q12.73-67.47 12.73-77.52L12.73-77.52L12.73-77.52Q12.73-87.58 11.71-117.11L11.71-117.11L11.71-117.11Q12.22-133.92 13.75-138.25L13.75-138.25L12.73-138.50L12.98-140.03L12.98-140.03Q12.98-139.77 13.24-139.52L13.24-139.52L14.00-142.32L13.49-142.32L13.49-142.32Q12.98-142.32 12.98-142.83L12.98-142.83L12.98-142.83Q12.98-143.08 12.98-143.34L12.98-143.34L12.98-143.34Q13.24-143.34 13.75-142.83L13.75-142.83L13.75-142.83Q14.26-151.48 14.00-154.54L14.00-154.54L14.00-154.54Q13.49-157.09 14.26-164.72L14.26-164.72L14.26-164.72Q15.02-172.36 13.75-174.65L13.75-174.65L12.98-174.65L12.98-174.65Q12.98-175.93 14.26-176.82L14.26-176.82L14.26-176.82Q15.53-177.71 15.53-178.73L15.53-178.73L15.53-178.73Q15.78-178.73 16.29-178.98L16.29-178.98L16.29-178.98Q16.55-179.24 17.06-178.98L17.06-178.98L17.06-178.98Q17.82-180.00 16.29-181.02L16.29-181.02L16.29-181.02Q14.77-182.04 14.77-182.80L14.77-182.80L14.77-182.80Q17.06-182.29 22.53-181.78L22.53-181.78L22.53-181.78Q28.01-181.27 30.55-181.02L30.55-181.02L30.55-181.02Q29.02-180.76 24.70-180.89L24.70-180.89L24.70-180.89Q20.37-181.02 18.84-180.00L18.84-180.00L18.84-180.00Q19.09-178.73 20.75-179.11L20.75-179.11L20.75-179.11Q22.40-179.49 22.66-179.24L22.66-179.24L22.40-178.22L22.40-178.22Q28.77-177.20 32.21-177.20L32.21-177.20L32.21-177.20Q35.64-177.20 42.01-177.84L42.01-177.84L42.01-177.84Q48.37-178.47 51.43-178.47L51.43-178.47L51.43-178.47Q52.19-178.98 52.57-179.87L52.57-179.87L52.57-179.87Q52.96-180.76 53.08-181.91L53.08-181.91L53.08-181.91Q53.21-183.05 53.47-183.56L53.47-183.56L53.47-183.56Q53.72-183.05 54.36-181.02L54.36-181.02L54.36-181.02Q54.99-178.98 56.01-178.22L56.01-178.22L59.58-178.22L59.58-178.22Q59.58-177.20 57.54-176.18L57.54-176.18L57.54-176.18Q55.50-175.16 56.01-173.38L56.01-173.38L56.01-173.38Q54.23-161.16 54.61-139.01L54.61-139.01L54.61-139.01Q54.99-116.86 54.23-104.13L54.23-104.13L54.23-104.13Q55.25-81.98 53.21-54.99L53.21-54.99L53.21-54.99Q54.99-14.00 56.27-3.56L56.27-3.56L56.27-3.56Q56.52-3.56 57.28-3.44L57.28-3.44L57.28-3.44Q58.05-3.31 58.56-3.31L58.56-3.31L58.56-3.31Q57.54-3.06 57.03-2.55L57.03-2.55L57.03-2.55Q56.77-1.78 57.16-1.40L57.16-1.40L57.16-1.40Q57.54-1.02 57.92-0.64L57.92-0.64L57.92-0.64Q58.30-0.25 58.05 0.51L58.05 0.51L58.05 0.51Q56.52 2.04 52.83 1.15L52.83 1.15L52.83 1.15Q49.14 0.25 47.35 1.02L47.35 1.02L47.35 1.02Q43.03-0.51 35.26-0.25L35.26-0.25L35.26-0.25Q27.50 0 22.91-0.51L22.91-0.51L22.91 0.51L22.91 0.51Q22.66 0.51 22.15-0.13L22.15-0.13L22.15-0.13Q21.64-0.76 21.13-0.51L21.13-0.51L21.13-0.51Q20.62 1.27 18.20 1.27L18.20 1.27L18.20 1.27Q15.78 1.27 15.53 2.80L15.53 2.80L15.53 2.80Q15.53 2.29 14.77 2.04L14.77 2.04L14.77 2.04Q14.51 1.78 14.00 2.29L14.00 2.29L14.00 2.29Q12.73 2.80 12.73 1.78L12.73 1.78L12.73 1.78Q12.73 2.04 12.73 2.04L12.73 2.04L12.73 2.04Q11.71 2.04 11.07 0.76L11.07 0.76L11.07 0.76Q10.44-0.51 9.42 0.51ZM19.60-136.21L19.09-135.95L19.60-135.45L19.60-135.45Q19.60-134.68 19.86-132.90L19.86-132.90L19.86-132.90Q20.11-131.12 19.60-130.86L19.60-130.86L19.60-130.86Q18.08-128.83 20.11-128.06L20.11-128.06L20.11-128.06Q16.55-84.02 19.86-52.96L19.86-52.96L20.37-52.70L20.37-56.77L20.62-56.77L20.62-56.77Q22.40-52.70 20.37-51.43L20.37-51.43L19.86-51.68L20.11-48.12L20.11-48.12Q21.13-48.12 20.75-47.23L20.75-47.23L20.75-47.23Q20.37-46.34 21.13-45.83L21.13-45.83L21.13-45.83Q20.88-45.83 20.37-46.34L20.37-46.34L20.37-44.30L20.37-44.30Q20.62-41.75 20.62-34.63L20.62-34.63L20.62-34.63Q20.62-27.50 21.39-23.93L21.39-23.93L21.39-23.93Q21.64-21.64 21.13-14.89L21.13-14.89L21.13-14.89Q20.62-8.15 21.90-6.62L21.90-6.62L21.90-6.62Q24.44-7.89 27.88-7.89L27.88-7.89L27.88-7.89Q31.32-7.89 35.77-7.51L35.77-7.51L35.77-7.51Q40.23-7.13 42.52-7.13L42.52-7.13L42.52-7.13Q43.03-7.89 43.03-9.55L43.03-9.55L43.03-9.55Q43.03-11.20 43.28-11.97L43.28-11.97L43.28-11.97Q43.54-11.97 43.54-14.00L43.54-14.00L43.54-14.00Q43.79-15.02 45.32-14.51L45.32-14.51L45.32-14.51Q45.32-13.49 44.68-11.58L44.68-11.58L44.68-11.58Q44.05-9.67 44.55-8.15L44.55-8.15L44.55-8.15Q44.55-7.64 45.32-7.38L45.32-7.38L45.32-7.38Q45.83-7.13 46.08-6.87L46.08-6.87L46.08-6.87Q46.85-10.95 46.85-27.50L46.85-27.50L46.34-26.48L46.34-26.48Q45.83-26.99 46.08-27.62L46.08-27.62L46.08-27.62Q46.34-28.26 46.21-28.77L46.21-28.77L46.21-28.77Q46.08-29.28 45.32-29.28L45.32-29.28L45.32-29.28Q46.34-34.63 46.34-45.45L46.34-45.45L46.34-45.45Q46.34-56.27 46.85-61.10L46.85-61.10L46.85-61.10Q47.35-63.14 46.72-67.60L46.72-67.60L46.72-67.60Q46.08-72.05 47.10-73.83L47.10-73.83L47.10-73.83Q47.35-73.83 47.61-73.58L47.61-73.58L47.61-73.58Q48.88-75.11 47.74-77.14L47.74-77.14L47.74-77.14Q46.59-79.18 47.10-80.71L47.10-80.71L47.35-80.71L47.35-80.71Q47.35-80.45 47.48-80.45L47.48-80.45L47.48-80.45Q47.61-80.45 47.61-80.20L47.61-80.20L47.61-80.20Q48.12-80.96 47.74-83.25L47.74-83.25L47.74-83.25Q47.35-85.54 47.61-87.33L47.61-87.33L48.37-88.09L48.37-88.09Q47.35-88.09 47.35-89.11L47.35-89.11L46.85-88.60L46.85-88.60Q46.85-89.36 46.59-92.29L46.59-92.29L46.59-92.29Q46.34-95.22 46.85-96.49L46.85-96.49L46.85-96.49Q47.61-95.98 47.35-95.73L47.35-95.73L47.35-95.73Q47.35-95.47 47.86-95.47L47.86-95.47L47.86-95.47Q47.86-97.00 47.74-99.42L47.74-99.42L47.74-99.42Q47.61-101.84 47.61-103.62L47.61-103.62L47.61-103.62Q48.37-105.40 47.86-106.68L47.86-106.68L48.37-106.42L48.37-106.42Q49.90-131.88 48.88-151.48L48.88-151.48L48.88-151.48Q49.14-151.48 49.39-151.23L49.39-151.23L49.39-151.23Q49.65-151.74 48.88-152.63L48.88-152.63L48.88-152.63Q48.12-153.52 48.88-154.03L48.88-154.03L49.14-153.78L49.14-153.78Q49.14-168.54 48.63-171.09L48.63-171.09L48.63-171.09Q32.59-174.40 22.15-173.13L22.15-173.13L22.15-173.13Q21.39-171.09 22.53-167.02L22.53-167.02L22.53-167.02Q23.68-162.94 23.42-161.16L23.42-161.16L23.42-161.16Q22.91-161.92 22.66-163.83L22.66-163.83L22.66-163.83Q22.40-165.74 21.39-166.25L21.39-166.25L21.39-166.25Q21.39-165.74 21.51-164.72L21.51-164.72L21.51-164.72Q21.64-163.71 21.64-162.94L21.64-162.94L21.64-162.94Q21.64-162.18 21.39-161.41L21.39-161.41L21.39-161.41Q21.13-160.65 20.62-160.14L20.62-160.14L20.62-160.14Q20.62-160.40 20.50-160.40L20.50-160.40L20.50-160.40Q20.37-160.40 20.37-160.65L20.37-160.65L20.37-160.65Q20.37-156.58 21.39-155.81L21.39-155.81L21.39-155.81Q21.39-155.05 21.51-153.14L21.51-153.14L21.51-153.14Q21.64-151.23 21.39-149.70L21.39-149.70L21.39-149.70Q21.13-148.18 20.37-146.90L20.37-146.90L20.37-146.90Q19.86-147.92 19.86-148.94L19.86-148.94L19.86-148.94Q19.60-147.16 19.99-142.96L19.99-142.96L19.99-142.96Q20.37-138.76 19.60-136.97L19.60-136.97L20.37-136.46L20.37-136.46Q20.37-135.70 20.11-135.45L20.11-135.45L19.60-136.21ZM23.42-8.15L21.90-8.15L23.42-8.40L23.42-8.15ZM30.81-181.02L30.81-181.02L30.81-181.02Q31.06-181.02 31.44-181.53L31.44-181.53L31.44-181.53Q31.82-182.04 32.33-181.53L32.33-181.53L32.33-181.53Q32.08-181.53 31.57-181.27L31.57-181.27L31.57-181.27Q31.06-181.02 30.81-181.02ZM39.72-180.76L39.72-180.76L39.72-180.76Q39.72-181.27 40.23-181.40L40.23-181.40L40.23-181.40Q40.74-181.53 41.50-181.53L41.50-181.53L41.50-181.53Q42.26-181.53 42.52-181.53L42.52-181.53L43.03-180.76L43.03-180.76Q47.35-182.55 49.90-181.02L49.90-181.02L49.90-180.51L49.90-180.51Q44.30-180.00 42.52-180.76L42.52-180.76L42.52-180.76Q41.75-180.25 39.72-180.76Z" transform="translate(0 238.0476457399103)"></path><path fill="#000000" d="M5.86-173.89L5.86-173.89L5.86-173.89Q7.38-173.63 7.77-175.67L7.77-175.67L7.77-175.67Q8.15-177.71 10.18-177.20L10.18-177.20L10.18-177.20Q14.51-176.44 19.48-176.31L19.48-176.31L19.48-176.31Q24.44-176.18 30.55-176.56L30.55-176.56L30.55-176.56Q36.66-176.94 39.46-176.94L39.46-176.94L39.97-178.73L39.97-178.73Q39.97-176.44 42.01-175.67L42.01-175.67L42.01-175.67Q42.01-174.91 42.64-158.49L42.64-158.49L42.64-158.49Q43.28-142.06 45.70-121.95L45.70-121.95L45.70-121.95Q48.12-101.84 53.21-76.38L53.21-76.38L53.72-76.38L53.72-76.38Q54.23-76.12 54.48-75.62L54.48-75.62L54.48-75.62Q57.79-83.00 62.12-104.26L62.12-104.26L62.12-104.26Q66.45-125.52 67.72-129.84L67.72-129.84L67.72-129.84Q67.72-132.90 68.49-134.17L68.49-134.17L68.23-134.43L68.23-134.43Q68.74-135.45 69.50-138.88L69.50-138.88L69.50-138.88Q70.27-142.32 71.29-143.85L71.29-143.85L71.29-143.85Q71.54-148.18 73.83-158.74L73.83-158.74L73.83-158.74Q76.12-169.31 76.38-174.14L76.38-174.14L76.89-174.65L76.89-174.65Q77.14-175.42 77.65-175.80L77.65-175.80L77.65-175.80Q78.16-176.18 78.67-176.18L78.67-176.18L78.67-176.18Q82.23-174.91 88.47-175.04L88.47-175.04L88.47-175.04Q94.71-175.16 98.78-174.91L98.78-174.91L98.78-174.91Q101.84-173.38 104.51-174.65L104.51-174.65L104.51-174.65Q107.19-175.93 110.11-175.80L110.11-175.80L110.11-175.80Q113.04-175.67 114.57-172.62L114.57-172.62L114.57-172.62Q114.31-171.85 113.55-170.45L113.55-170.45L113.55-170.45Q112.79-169.05 112.15-167.52L112.15-167.52L112.15-167.52Q111.51-166.00 111.51-164.72L111.51-164.72L111.51-164.72Q111.00-159.63 108.71-148.81L108.71-148.81L108.71-148.81Q106.42-137.99 105.91-134.17L105.91-134.17L105.91-134.17Q104.89-132.39 104.89-129.84L104.89-129.84L104.89-129.84Q96.49-85.04 95.98-80.71L95.98-80.71L95.98-80.71Q95.98-81.22 95.47-81.73L95.47-81.73L95.47-81.73Q92.42-73.83 88.09-57.41L88.09-57.41L88.09-57.41Q83.76-40.99 80.71-33.10L80.71-33.10L80.71-33.10Q78.92-27.50 76.51-16.17L76.51-16.17L76.51-16.17Q74.09-4.84 72.05 0.51L72.05 0.51L72.05 0.51Q72.05 0.76 72.56 1.27L72.56 1.27L72.56 1.27Q72.81 1.53 72.81 2.04L72.81 2.04L72.81 2.04Q69.76 3.82 70.01 5.60L70.01 5.60L69.00 3.31L69.00 3.31Q64.41 2.80 52.19 3.06L52.19 3.06L52.19 3.06Q39.97 3.31 35.64 2.29L35.64 2.29L33.86 0.51L33.86 0.51Q30.30-9.42 27.88-21.26L27.88-21.26L27.88-21.26Q25.46-33.10 23.30-47.74L23.30-47.74L23.30-47.74Q21.13-62.38 19.60-70.52L19.60-70.52L19.60-70.52Q18.33-77.65 15.28-94.84L15.28-94.84L15.28-94.84Q12.22-112.02 10.57-122.33L10.57-122.33L10.57-122.33Q8.91-132.64 7.38-147.28L7.38-147.28L7.38-147.28Q5.86-161.92 5.86-173.89ZM8.66-149.19L8.66-149.19L8.66-149.19Q9.42-130.35 13.75-110.24L13.75-110.24L13.75-112.53L13.75-112.53Q12.22-117.88 11.46-130.86L11.46-130.86L11.46-130.86Q10.69-143.85 8.66-149.19ZM12.22-172.11L12.22-172.11L12.22-172.11Q15.28-162.43 17.44-140.54L17.44-140.54L17.44-140.54Q19.60-118.64 20.11-114.82L20.11-114.82L20.11-114.82Q21.64-106.42 21.39-102.35L21.39-102.35L21.39-102.35Q24.44-88.34 29.79-56.01L29.79-56.01L29.79-56.01Q35.13-23.68 39.46-6.11L39.46-6.11L40.99-3.56L40.99-3.56Q55.50-3.56 62.38-2.29L62.38-2.29L62.38-2.29Q63.14-2.29 65.30-3.31L65.30-3.31L65.30-3.31Q67.47-4.33 67.98-3.06L67.98-3.06L67.98-3.06Q68.49-7.89 69.89-12.98L69.89-12.98L69.89-12.98Q71.29-18.08 73.32-24.19L73.32-24.19L73.32-24.19Q75.36-30.30 76.38-33.86L76.38-33.86L76.38-33.86Q78.42-40.23 81.60-52.57L81.60-52.57L81.60-52.57Q84.78-64.92 86.56-70.52L86.56-70.52L86.82-70.52L86.82-70.52Q88.09-80.20 90.38-87.33L90.38-87.33L90.38-87.33Q96.75-109.73 104.38-148.94L104.38-148.94L108.71-171.60L108.71-171.60Q106.93-172.62 103.11-172.49L103.11-172.49L103.11-172.49Q99.29-172.36 97.00-172.62L97.00-172.62L96.24-172.11L96.24-172.11Q91.65-173.63 84.27-171.60L84.27-171.60L84.27-171.60Q81.98-170.32 81.85-164.34L81.85-164.34L81.85-164.34Q81.73-158.36 80.96-156.83L80.96-156.83L80.96-156.83Q77.40-141.30 68.36-106.04L68.36-106.04L68.36-106.04Q59.32-70.78 56.01-56.01L56.01-56.01L54.74-55.76L54.74-55.76Q54.48-56.77 52.96-58.18L52.96-58.18L52.96-58.18Q51.43-59.58 52.19-61.10L52.19-61.10L52.19-61.10Q51.17-64.67 48.88-74.47L48.88-74.47L48.88-74.47Q46.59-84.27 44.81-89.36L44.81-89.36L44.81-89.36Q41.50-99.55 40.74-125.01L40.74-125.01L40.74-125.01Q39.97-150.47 37.68-159.63L37.68-159.63L37.68-159.63Q36.92-160.90 36.92-164.85L36.92-164.85L36.92-164.85Q36.92-168.80 36.28-171.34L36.28-171.34L36.28-171.34Q35.64-173.89 32.84-173.63L32.84-173.63L32.84-173.63Q31.82-173.63 26.48-174.02L26.48-174.02L26.48-174.02Q21.13-174.40 17.82-174.02L17.82-174.02L17.82-174.02Q14.51-173.63 12.22-172.11ZM12.73-157.60L12.73-157.60L12.73-157.60Q12.73-153.01 14.00-145.25L14.00-145.25L14.00-145.25Q15.28-137.48 15.53-135.45L15.53-135.45L16.55-134.17L16.55-134.17Q15.28-147.41 12.73-157.60ZM22.66-61.61L22.66-61.61L22.66-61.61Q24.70-45.32 28.01-31.57L28.01-31.57L28.01-31.57Q27.50-34.88 26.86-41.24L26.86-41.24L26.86-41.24Q26.22-47.61 25.33-52.57L25.33-52.57L25.33-52.57Q24.44-57.54 22.66-61.61ZM40.48-179.75L39.97-178.73L40.48-179.75Z" transform="translate(63.9036995515695 238.0476457399103)"></path><path fill="#000000" d="M7.89-171.34L7.89-171.34L7.89-171.34Q7.89-171.09 8.02-170.58L8.02-170.58L8.02-170.58Q8.15-170.07 8.15-169.82L8.15-169.82L8.15-169.82Q7.89-170.07 7.89-171.34ZM8.15-169.82L8.15-169.82L8.15-169.82Q8.66-167.78 8.91-167.02L8.91-167.02L8.91-167.02Q9.42-168.29 9.29-171.47L9.29-171.47L9.29-171.47Q9.17-174.65 9.42-176.44L9.42-176.44L9.42-176.44Q11.71-178.22 16.17-178.60L16.17-178.60L16.17-178.60Q20.62-178.98 21.64-179.24L21.64-179.24L21.64-179.24Q36.41-179.75 39.59-179.87L39.59-179.87L39.59-179.87Q42.77-180.00 57.28-179.24L57.28-179.24L57.28-179.24Q71.80-178.47 75.36-178.22L75.36-178.22L75.36-178.22Q92.42-176.18 104.77-162.31L104.77-162.31L104.77-162.31Q117.11-148.43 121.70-130.35L121.70-130.35L121.70-130.35Q123.48-118.90 119.66-108.59L119.66-108.59L119.66-108.59Q115.84-98.27 107.69-85.54L107.69-85.54L107.69-85.54Q106.68-84.78 102.35-81.60L102.35-81.60L102.35-81.60Q98.02-78.42 96.62-77.52L96.62-77.52L96.62-77.52Q95.22-76.63 91.53-74.21L91.53-74.21L91.53-74.21Q87.84-71.80 85.54-70.91L85.54-70.91L85.54-70.91Q83.25-70.01 79.82-68.87L79.82-68.87L79.82-68.87Q76.38-67.72 73.07-67.21L73.07-67.21L73.07-67.21Q70.01-67.21 63.01-66.83L63.01-66.83L63.01-66.83Q56.01-66.45 53.21-66.96L53.21-66.96L52.45-66.45L53.97-64.67L53.97-64.67Q52.45-52.45 52.96-47.86L52.96-47.86L52.96-47.86Q51.68-47.61 52.19-46.21L52.19-46.21L52.19-46.21Q52.70-44.81 52.19-44.55L52.19-44.55L52.45-44.30L52.19-44.30L52.19-42.77L52.45-43.03L52.45-43.03Q52.96-37.93 52.96-27.88L52.96-27.88L52.96-27.88Q52.96-17.82 53.21-12.22L53.21-12.22L53.21-12.22Q53.47-11.71 53.21-11.58L53.21-11.58L53.21-11.58Q52.96-11.46 52.45-11.97L52.45-11.97L52.45-11.97Q51.94-10.95 53.72-9.17L53.72-9.17L53.72-9.17Q52.45-7.38 52.70-5.60L52.70-5.60L52.70-5.60Q52.96-5.35 53.47-5.09L53.47-5.09L53.47-5.09Q54.74-4.33 54.23-3.56L54.23-3.56L53.47-2.80L53.72-2.55L53.72-2.55Q53.21-2.29 52.32-2.80L52.32-2.80L52.32-2.80Q51.43-3.31 50.79-3.69L50.79-3.69L50.79-3.69Q50.16-4.07 49.65-3.06L49.65-3.06L49.65-3.06Q49.39-3.31 48.88-3.06L48.88-3.06L48.88-3.06Q48.37-2.80 47.74-2.04L47.74-2.04L47.74-2.04Q47.10-1.27 46.59-1.02L46.59-1.02L46.59-1.02Q46.08-0.76 45.83-1.27L45.83-1.27L45.83-1.27Q45.83-1.53 45.32-1.27L45.32-1.27L45.32-1.27Q44.81-1.53 44.30-2.04L44.30-2.04L44.30-2.04Q44.05-2.29 42.26-1.53L42.26-1.53L42.01-1.53L42.01-1.53Q38.95-1.02 28.26-1.15L28.26-1.15L28.26-1.15Q17.57-1.27 14.51-1.27L14.51-1.27L14.51-1.27Q14.26-1.02 13.75-0.38L13.75-0.38L13.75-0.38Q13.24 0.25 13.24 0.76L13.24 0.76L13.24 0.76Q11.20-1.78 10.44-1.53L10.44-1.53L10.44-1.53Q9.93-1.53 9.42-0.76L9.42-0.76L8.91-1.02L8.91-1.02Q8.15-1.02 8.66-1.53L8.66-1.53L8.66-1.53Q12.22-2.80 11.46-6.36L11.46-6.36L11.46-6.36Q10.18-17.06 11.46-31.57L11.46-31.57L11.46-31.57Q10.69-38.70 9.93-45.32L9.93-45.32L9.93-42.26L9.93-42.26Q9.42-52.19 8.66-57.54L8.66-57.54L9.17-58.56L9.17-58.56Q9.17-58.30 9.93-45.32L9.93-45.32L9.93-45.32Q10.44-64.16 10.31-96.87L10.31-96.87L10.31-96.87Q10.18-129.59 10.44-146.65L10.44-146.65L10.44-146.65Q9.93-149.96 9.67-156.19L9.67-156.19L9.67-156.19Q9.42-162.43 9.17-165.23L9.17-165.23L9.17-165.23Q8.66-166.00 8.15-169.82ZM11.20-64.92L11.20-61.87L11.46-61.87L11.46-64.92L11.20-64.92ZM12.48-166.76L11.97-166.76L12.22-160.65L12.48-160.65L12.48-166.76ZM12.48-85.29L12.48-85.29L12.48-85.29Q13.24-93.18 13.24-125.26L13.24-125.26L12.98-125.26L12.98-125.26Q12.98-125.77 12.48-125.77L12.48-125.77L12.48-125.77Q12.22-105.40 12.48-85.29ZM12.98-131.88L12.98-127.55L12.98-127.55Q12.73-127.30 12.73-126.66L12.73-126.66L12.73-126.66Q12.73-126.03 13.24-126.03L13.24-126.03L13.24-126.03Q13.24-127.04 13.11-128.95L13.11-128.95L13.11-128.95Q12.98-130.86 12.98-131.88L12.98-131.88ZM13.49-126.28L13.24-126.03L13.24-126.03Q13.49-125.77 13.49-126.28L13.49-126.28ZM14.77-23.93L14.77-23.93L14.77-23.93Q14.77-23.17 15.28-22.02L15.28-22.02L15.28-22.02Q15.78-20.88 15.91-20.37L15.91-20.37L15.91-20.37Q16.04-19.86 15.53-18.59L15.53-18.59L15.53-18.59Q16.04-17.31 15.66-13.24L15.66-13.24L15.66-13.24Q15.28-9.17 16.29-7.89L16.29-7.89L16.29-7.89Q16.55-7.64 16.55-5.60L16.55-5.60L18.84-5.35L18.84-5.35Q19.09-4.58 20.24-4.84L20.24-4.84L20.24-4.84Q21.39-5.09 21.64-4.07L21.64-4.07L21.64-4.07Q39.72-3.56 44.55-4.84L44.55-4.84L46.59-3.82L46.59-3.82Q46.34-4.84 46.08-4.84L46.08-4.84L46.08-4.84Q46.34-5.09 46.59-5.60L46.59-5.60L46.85-4.58L46.85-4.58Q47.10-5.09 47.35-5.09L47.35-5.09L47.35-5.09Q47.86-5.35 47.48-6.11L47.48-6.11L47.48-6.11Q47.10-6.87 47.10-7.13L47.10-7.13L47.10-7.13Q47.61-7.64 48.12-7.38L48.12-7.38L48.12-7.38Q48.12-7.38 48.25-7.38L48.25-7.38L48.25-7.38Q48.37-7.38 48.37-7.64L48.37-7.64L48.37-7.64Q49.39-13.75 49.26-24.57L49.26-24.57L49.26-24.57Q49.14-35.39 49.65-40.74L49.65-40.74L49.65-40.74Q48.63-40.74 48.63-40.99L48.63-40.99L48.63-40.99Q50.41-50.92 48.63-56.77L48.63-56.77L48.63-56.77Q47.10-58.05 47.61-61.99L47.61-61.99L47.61-61.99Q48.12-65.94 46.59-67.72L46.59-67.72L46.59-67.72Q46.59-67.98 47.10-68.74L47.10-68.74L47.10-68.74Q47.86-69.76 46.59-70.27L46.59-70.27L46.59-70.27Q47.35-70.78 47.48-72.31L47.48-72.31L47.48-72.31Q47.61-73.83 49.14-73.58L49.14-73.58L49.14-74.60L49.14-74.60Q48.88-74.85 49.14-75.11L49.14-75.11L49.14-75.11Q49.39-75.36 49.65-75.11L49.65-75.11L49.65-75.11Q51.43-74.85 51.43-71.80L51.43-71.80L51.43-71.80Q62.89-67.98 74.34-71.29L74.34-71.29L74.34-71.29Q80.45-72.31 93.18-80.71L93.18-80.71L93.18-80.71Q93.44-80.20 93.18-79.82L93.18-79.82L93.18-79.82Q92.93-79.43 92.16-79.05L92.16-79.05L92.16-79.05Q91.40-78.67 91.15-78.16L91.15-78.16L91.15-78.16Q99.29-80.45 102.86-86.05L102.86-86.05L102.86-86.05Q108.97-92.16 109.73-95.47L109.73-95.47L109.73-95.47Q112.79-98.53 113.93-103.11L113.93-103.11L113.93-103.11Q115.08-107.69 115.46-113.80L115.46-113.80L115.46-113.80Q115.84-119.91 116.61-122.46L116.61-122.46L116.61-122.46Q115.59-132.39 111.77-143.85L111.77-143.85L102.60-156.58L102.60-156.58Q92.93-164.98 87.58-168.03L87.58-168.03L87.58-168.03Q85.80-167.78 84.27-168.03L84.27-168.03L84.27-168.03Q82.74-168.29 80.58-169.18L80.58-169.18L80.58-169.18Q78.42-170.07 77.91-170.32L77.91-170.32L77.91-170.32Q75.36-170.83 68.74-172.62L68.74-172.62L68.74-172.62Q62.12-174.40 56.77-175.16L56.77-175.16L56.77-175.16Q51.43-175.93 46.34-175.42L46.34-175.42L46.34-175.42Q45.57-175.67 43.54-175.29L43.54-175.29L43.54-175.29Q41.50-174.91 41.24-175.93L41.24-175.93L41.24-175.93Q40.23-175.67 39.08-175.80L39.08-175.80L39.08-175.80Q37.93-175.93 36.79-175.67L36.79-175.67L36.79-175.67Q35.64-175.42 35.13-174.65L35.13-174.65L35.13-174.65Q34.12-174.65 33.61-175.16L33.61-175.16L33.61-175.16Q33.35-175.16 31.95-175.16L31.95-175.16L31.95-175.16Q30.55-175.16 30.55-174.65L30.55-174.65L30.55-174.65Q29.53-175.67 28.13-174.78L28.13-174.78L28.13-174.78Q26.73-173.89 26.22-174.91L26.22-174.91L26.22-174.91Q25.71-173.89 24.44-173.76L24.44-173.76L24.44-173.76Q23.17-173.63 21.77-173.76L21.77-173.76L21.77-173.76Q20.37-173.89 18.84-173.38L18.84-173.38L18.84-173.38Q18.33-153.01 17.31-145.63L17.31-145.63L17.31-145.63Q18.08-145.37 17.69-137.35L17.69-137.35L17.69-137.35Q17.31-129.33 17.31-129.08L17.31-129.08L17.31-129.08Q17.57-128.57 17.19-127.81L17.19-127.81L17.19-127.81Q16.80-127.04 16.68-126.66L16.68-126.66L16.68-126.66Q16.55-126.28 17.57-125.77L17.57-125.77L17.06-125.26L16.55-125.26L16.55-125.26Q16.55-123.73 16.17-110.88L16.17-110.88L16.17-110.88Q15.78-98.02 16.29-96.49L16.29-96.49L16.29-96.49Q16.04-94.71 16.29-91.53L16.29-91.53L16.29-91.53Q16.55-88.34 16.04-86.56L16.04-86.56L16.04-86.56Q16.04-86.82 15.78-87.84L15.78-87.84L15.78-87.84Q15.53-88.60 15.53-88.60L15.53-88.60L15.53-88.60Q15.53-84.78 14.89-74.98L14.89-74.98L14.89-74.98Q14.26-65.18 14.26-60.34L14.26-60.34L14.26-60.34Q14.26-55.50 15.02-45.32L15.02-45.32L15.02-45.32Q14.00-42.01 14.64-34.50L14.64-34.50L14.64-34.50Q15.28-26.99 14.77-23.93ZM16.80-172.11L16.80-172.11L17.06-159.89L17.06-159.89Q17.06-171.09 16.80-172.11ZM47.10-106.93L46.08-138.50L46.08-138.50Q45.83-140.28 46.85-140.79L46.85-140.79L46.85-140.79Q47.86-141.30 49.39-140.92L49.39-140.92L49.39-140.92Q50.92-140.54 51.94-141.56L51.94-141.56L51.94-141.56Q71.54-144.36 83.76-129.08L83.76-129.08L83.76-129.08Q88.85-121.19 82.74-110.24L82.74-110.24L82.74-110.24Q80.96-107.44 77.91-106.29L77.91-106.29L77.91-106.29Q74.85-105.15 70.52-104.51L70.52-104.51L70.52-104.51Q66.20-103.88 64.16-103.37L64.16-103.37L64.16-103.37Q63.65-103.37 47.86-102.60L47.86-102.60L47.86-102.60Q47.86-103.11 47.10-104.00L47.10-104.00L47.10-104.00Q46.34-104.89 46.08-105.53L46.08-105.53L46.08-105.53Q45.83-106.17 47.10-106.93L47.10-106.93ZM49.90-137.99L49.90-137.99L49.90-137.99Q49.65-130.61 49.77-128.06L49.77-128.06L49.77-128.06Q49.90-125.52 50.92-118.13L50.92-118.13L50.92-118.13Q51.94-110.75 52.19-107.95L52.19-107.95L52.96-108.71L52.96-108.71Q52.96-107.69 54.36-107.44L54.36-107.44L54.36-107.44Q55.76-107.19 56.01-106.93L56.01-106.93L56.01-106.93Q65.43-108.46 77.65-112.53L77.65-112.53L77.65-112.53Q82.23-118.39 80.20-126.03L80.20-126.03L80.20-126.03Q78.16-130.61 73.96-132.77L73.96-132.77L73.96-132.77Q69.76-134.94 63.90-135.95L63.90-135.95L63.90-135.95Q58.05-136.97 55.76-137.99L55.76-137.99L55.76-137.99Q55.50-137.23 53.97-137.61L53.97-137.61L53.97-137.61Q52.45-137.99 51.94-137.99L51.94-137.99L51.94-137.99Q51.94-135.95 50.92-135.70L50.92-135.70L50.92-135.70Q50.66-135.70 50.66-136.72L50.66-136.72L50.66-136.72Q50.66-137.48 50.54-137.74L50.54-137.74L50.54-137.74Q50.41-137.99 49.90-137.99ZM52.45-39.46L52.19-39.46L52.45-38.19L52.45-39.46ZM66.45-176.44L66.45-176.44L73.83-174.65L73.83-174.65Q80.71-173.89 92.42-169.31L92.42-169.31L92.42-169.31Q81.47-175.93 66.45-176.44ZM100.57-162.69L98.53-163.96L102.09-161.16L100.57-162.69Z" transform="translate(182.29103139013452 238.0476457399103)"></path><path fill="#000000" d="M7.89-171.34L7.89-171.34L7.89-171.34Q7.89-171.09 8.02-170.58L8.02-170.58L8.02-170.58Q8.15-170.07 8.15-169.82L8.15-169.82L8.15-169.82Q7.89-170.07 7.89-171.34ZM8.15-169.82L8.15-169.82L8.15-169.82Q8.66-167.78 8.91-167.02L8.91-167.02L8.91-167.02Q9.42-168.29 9.29-171.47L9.29-171.47L9.29-171.47Q9.17-174.65 9.42-176.44L9.42-176.44L9.42-176.44Q11.71-178.22 16.17-178.60L16.17-178.60L16.17-178.60Q20.62-178.98 21.64-179.24L21.64-179.24L21.64-179.24Q36.41-179.75 39.59-179.87L39.59-179.87L39.59-179.87Q42.77-180.00 57.28-179.24L57.28-179.24L57.28-179.24Q71.80-178.47 75.36-178.22L75.36-178.22L75.36-178.22Q92.42-176.18 104.77-162.31L104.77-162.31L104.77-162.31Q117.11-148.43 121.70-130.35L121.70-130.35L121.70-130.35Q123.48-118.90 119.66-108.59L119.66-108.59L119.66-108.59Q115.84-98.27 107.69-85.54L107.69-85.54L107.69-85.54Q106.68-84.78 102.35-81.60L102.35-81.60L102.35-81.60Q98.02-78.42 96.62-77.52L96.62-77.52L96.62-77.52Q95.22-76.63 91.53-74.21L91.53-74.21L91.53-74.21Q87.84-71.80 85.54-70.91L85.54-70.91L85.54-70.91Q83.25-70.01 79.82-68.87L79.82-68.87L79.82-68.87Q76.38-67.72 73.07-67.21L73.07-67.21L73.07-67.21Q70.01-67.21 63.01-66.83L63.01-66.83L63.01-66.83Q56.01-66.45 53.21-66.96L53.21-66.96L52.45-66.45L53.97-64.67L53.97-64.67Q52.45-52.45 52.96-47.86L52.96-47.86L52.96-47.86Q51.68-47.61 52.19-46.21L52.19-46.21L52.19-46.21Q52.70-44.81 52.19-44.55L52.19-44.55L52.45-44.30L52.19-44.30L52.19-42.77L52.45-43.03L52.45-43.03Q52.96-37.93 52.96-27.88L52.96-27.88L52.96-27.88Q52.96-17.82 53.21-12.22L53.21-12.22L53.21-12.22Q53.47-11.71 53.21-11.58L53.21-11.58L53.21-11.58Q52.96-11.46 52.45-11.97L52.45-11.97L52.45-11.97Q51.94-10.95 53.72-9.17L53.72-9.17L53.72-9.17Q52.45-7.38 52.70-5.60L52.70-5.60L52.70-5.60Q52.96-5.35 53.47-5.09L53.47-5.09L53.47-5.09Q54.74-4.33 54.23-3.56L54.23-3.56L53.47-2.80L53.72-2.55L53.72-2.55Q53.21-2.29 52.32-2.80L52.32-2.80L52.32-2.80Q51.43-3.31 50.79-3.69L50.79-3.69L50.79-3.69Q50.16-4.07 49.65-3.06L49.65-3.06L49.65-3.06Q49.39-3.31 48.88-3.06L48.88-3.06L48.88-3.06Q48.37-2.80 47.74-2.04L47.74-2.04L47.74-2.04Q47.10-1.27 46.59-1.02L46.59-1.02L46.59-1.02Q46.08-0.76 45.83-1.27L45.83-1.27L45.83-1.27Q45.83-1.53 45.32-1.27L45.32-1.27L45.32-1.27Q44.81-1.53 44.30-2.04L44.30-2.04L44.30-2.04Q44.05-2.29 42.26-1.53L42.26-1.53L42.01-1.53L42.01-1.53Q38.95-1.02 28.26-1.15L28.26-1.15L28.26-1.15Q17.57-1.27 14.51-1.27L14.51-1.27L14.51-1.27Q14.26-1.02 13.75-0.38L13.75-0.38L13.75-0.38Q13.24 0.25 13.24 0.76L13.24 0.76L13.24 0.76Q11.20-1.78 10.44-1.53L10.44-1.53L10.44-1.53Q9.93-1.53 9.42-0.76L9.42-0.76L8.91-1.02L8.91-1.02Q8.15-1.02 8.66-1.53L8.66-1.53L8.66-1.53Q12.22-2.80 11.46-6.36L11.46-6.36L11.46-6.36Q10.18-17.06 11.46-31.57L11.46-31.57L11.46-31.57Q10.69-38.70 9.93-45.32L9.93-45.32L9.93-42.26L9.93-42.26Q9.42-52.19 8.66-57.54L8.66-57.54L9.17-58.56L9.17-58.56Q9.17-58.30 9.93-45.32L9.93-45.32L9.93-45.32Q10.44-64.16 10.31-96.87L10.31-96.87L10.31-96.87Q10.18-129.59 10.44-146.65L10.44-146.65L10.44-146.65Q9.93-149.96 9.67-156.19L9.67-156.19L9.67-156.19Q9.42-162.43 9.17-165.23L9.17-165.23L9.17-165.23Q8.66-166.00 8.15-169.82ZM11.20-64.92L11.20-61.87L11.46-61.87L11.46-64.92L11.20-64.92ZM12.48-166.76L11.97-166.76L12.22-160.65L12.48-160.65L12.48-166.76ZM12.48-85.29L12.48-85.29L12.48-85.29Q13.24-93.18 13.24-125.26L13.24-125.26L12.98-125.26L12.98-125.26Q12.98-125.77 12.48-125.77L12.48-125.77L12.48-125.77Q12.22-105.40 12.48-85.29ZM12.98-131.88L12.98-127.55L12.98-127.55Q12.73-127.30 12.73-126.66L12.73-126.66L12.73-126.66Q12.73-126.03 13.24-126.03L13.24-126.03L13.24-126.03Q13.24-127.04 13.11-128.95L13.11-128.95L13.11-128.95Q12.98-130.86 12.98-131.88L12.98-131.88ZM13.49-126.28L13.24-126.03L13.24-126.03Q13.49-125.77 13.49-126.28L13.49-126.28ZM14.77-23.93L14.77-23.93L14.77-23.93Q14.77-23.17 15.28-22.02L15.28-22.02L15.28-22.02Q15.78-20.88 15.91-20.37L15.91-20.37L15.91-20.37Q16.04-19.86 15.53-18.59L15.53-18.59L15.53-18.59Q16.04-17.31 15.66-13.24L15.66-13.24L15.66-13.24Q15.28-9.17 16.29-7.89L16.29-7.89L16.29-7.89Q16.55-7.64 16.55-5.60L16.55-5.60L18.84-5.35L18.84-5.35Q19.09-4.58 20.24-4.84L20.24-4.84L20.24-4.84Q21.39-5.09 21.64-4.07L21.64-4.07L21.64-4.07Q39.72-3.56 44.55-4.84L44.55-4.84L46.59-3.82L46.59-3.82Q46.34-4.84 46.08-4.84L46.08-4.84L46.08-4.84Q46.34-5.09 46.59-5.60L46.59-5.60L46.85-4.58L46.85-4.58Q47.10-5.09 47.35-5.09L47.35-5.09L47.35-5.09Q47.86-5.35 47.48-6.11L47.48-6.11L47.48-6.11Q47.10-6.87 47.10-7.13L47.10-7.13L47.10-7.13Q47.61-7.64 48.12-7.38L48.12-7.38L48.12-7.38Q48.12-7.38 48.25-7.38L48.25-7.38L48.25-7.38Q48.37-7.38 48.37-7.64L48.37-7.64L48.37-7.64Q49.39-13.75 49.26-24.57L49.26-24.57L49.26-24.57Q49.14-35.39 49.65-40.74L49.65-40.74L49.65-40.74Q48.63-40.74 48.63-40.99L48.63-40.99L48.63-40.99Q50.41-50.92 48.63-56.77L48.63-56.77L48.63-56.77Q47.10-58.05 47.61-61.99L47.61-61.99L47.61-61.99Q48.12-65.94 46.59-67.72L46.59-67.72L46.59-67.72Q46.59-67.98 47.10-68.74L47.10-68.74L47.10-68.74Q47.86-69.76 46.59-70.27L46.59-70.27L46.59-70.27Q47.35-70.78 47.48-72.31L47.48-72.31L47.48-72.31Q47.61-73.83 49.14-73.58L49.14-73.58L49.14-74.60L49.14-74.60Q48.88-74.85 49.14-75.11L49.14-75.11L49.14-75.11Q49.39-75.36 49.65-75.11L49.65-75.11L49.65-75.11Q51.43-74.85 51.43-71.80L51.43-71.80L51.43-71.80Q62.89-67.98 74.34-71.29L74.34-71.29L74.34-71.29Q80.45-72.31 93.18-80.71L93.18-80.71L93.18-80.71Q93.44-80.20 93.18-79.82L93.18-79.82L93.18-79.82Q92.93-79.43 92.16-79.05L92.16-79.05L92.16-79.05Q91.40-78.67 91.15-78.16L91.15-78.16L91.15-78.16Q99.29-80.45 102.86-86.05L102.86-86.05L102.86-86.05Q108.97-92.16 109.73-95.47L109.73-95.47L109.73-95.47Q112.79-98.53 113.93-103.11L113.93-103.11L113.93-103.11Q115.08-107.69 115.46-113.80L115.46-113.80L115.46-113.80Q115.84-119.91 116.61-122.46L116.61-122.46L116.61-122.46Q115.59-132.39 111.77-143.85L111.77-143.85L102.60-156.58L102.60-156.58Q92.93-164.98 87.58-168.03L87.58-168.03L87.58-168.03Q85.80-167.78 84.27-168.03L84.27-168.03L84.27-168.03Q82.74-168.29 80.58-169.18L80.58-169.18L80.58-169.18Q78.42-170.07 77.91-170.32L77.91-170.32L77.91-170.32Q75.36-170.83 68.74-172.62L68.74-172.62L68.74-172.62Q62.12-174.40 56.77-175.16L56.77-175.16L56.77-175.16Q51.43-175.93 46.34-175.42L46.34-175.42L46.34-175.42Q45.57-175.67 43.54-175.29L43.54-175.29L43.54-175.29Q41.50-174.91 41.24-175.93L41.24-175.93L41.24-175.93Q40.23-175.67 39.08-175.80L39.08-175.80L39.08-175.80Q37.93-175.93 36.79-175.67L36.79-175.67L36.79-175.67Q35.64-175.42 35.13-174.65L35.13-174.65L35.13-174.65Q34.12-174.65 33.61-175.16L33.61-175.16L33.61-175.16Q33.35-175.16 31.95-175.16L31.95-175.16L31.95-175.16Q30.55-175.16 30.55-174.65L30.55-174.65L30.55-174.65Q29.53-175.67 28.13-174.78L28.13-174.78L28.13-174.78Q26.73-173.89 26.22-174.91L26.22-174.91L26.22-174.91Q25.71-173.89 24.44-173.76L24.44-173.76L24.44-173.76Q23.17-173.63 21.77-173.76L21.77-173.76L21.77-173.76Q20.37-173.89 18.84-173.38L18.84-173.38L18.84-173.38Q18.33-153.01 17.31-145.63L17.31-145.63L17.31-145.63Q18.08-145.37 17.69-137.35L17.69-137.35L17.69-137.35Q17.31-129.33 17.31-129.08L17.31-129.08L17.31-129.08Q17.57-128.57 17.19-127.81L17.19-127.81L17.19-127.81Q16.80-127.04 16.68-126.66L16.68-126.66L16.68-126.66Q16.55-126.28 17.57-125.77L17.57-125.77L17.06-125.26L16.55-125.26L16.55-125.26Q16.55-123.73 16.17-110.88L16.17-110.88L16.17-110.88Q15.78-98.02 16.29-96.49L16.29-96.49L16.29-96.49Q16.04-94.71 16.29-91.53L16.29-91.53L16.29-91.53Q16.55-88.34 16.04-86.56L16.04-86.56L16.04-86.56Q16.04-86.82 15.78-87.84L15.78-87.84L15.78-87.84Q15.53-88.60 15.53-88.60L15.53-88.60L15.53-88.60Q15.53-84.78 14.89-74.98L14.89-74.98L14.89-74.98Q14.26-65.18 14.26-60.34L14.26-60.34L14.26-60.34Q14.26-55.50 15.02-45.32L15.02-45.32L15.02-45.32Q14.00-42.01 14.64-34.50L14.64-34.50L14.64-34.50Q15.28-26.99 14.77-23.93ZM16.80-172.11L16.80-172.11L17.06-159.89L17.06-159.89Q17.06-171.09 16.80-172.11ZM47.10-106.93L46.08-138.50L46.08-138.50Q45.83-140.28 46.85-140.79L46.85-140.79L46.85-140.79Q47.86-141.30 49.39-140.92L49.39-140.92L49.39-140.92Q50.92-140.54 51.94-141.56L51.94-141.56L51.94-141.56Q71.54-144.36 83.76-129.08L83.76-129.08L83.76-129.08Q88.85-121.19 82.74-110.24L82.74-110.24L82.74-110.24Q80.96-107.44 77.91-106.29L77.91-106.29L77.91-106.29Q74.85-105.15 70.52-104.51L70.52-104.51L70.52-104.51Q66.20-103.88 64.16-103.37L64.16-103.37L64.16-103.37Q63.65-103.37 47.86-102.60L47.86-102.60L47.86-102.60Q47.86-103.11 47.10-104.00L47.10-104.00L47.10-104.00Q46.34-104.89 46.08-105.53L46.08-105.53L46.08-105.53Q45.83-106.17 47.10-106.93L47.10-106.93ZM49.90-137.99L49.90-137.99L49.90-137.99Q49.65-130.61 49.77-128.06L49.77-128.06L49.77-128.06Q49.90-125.52 50.92-118.13L50.92-118.13L50.92-118.13Q51.94-110.75 52.19-107.95L52.19-107.95L52.96-108.71L52.96-108.71Q52.96-107.69 54.36-107.44L54.36-107.44L54.36-107.44Q55.76-107.19 56.01-106.93L56.01-106.93L56.01-106.93Q65.43-108.46 77.65-112.53L77.65-112.53L77.65-112.53Q82.23-118.39 80.20-126.03L80.20-126.03L80.20-126.03Q78.16-130.61 73.96-132.77L73.96-132.77L73.96-132.77Q69.76-134.94 63.90-135.95L63.90-135.95L63.90-135.95Q58.05-136.97 55.76-137.99L55.76-137.99L55.76-137.99Q55.50-137.23 53.97-137.61L53.97-137.61L53.97-137.61Q52.45-137.99 51.94-137.99L51.94-137.99L51.94-137.99Q51.94-135.95 50.92-135.70L50.92-135.70L50.92-135.70Q50.66-135.70 50.66-136.72L50.66-136.72L50.66-136.72Q50.66-137.48 50.54-137.74L50.54-137.74L50.54-137.74Q50.41-137.99 49.90-137.99ZM52.45-39.46L52.19-39.46L52.45-38.19L52.45-39.46ZM66.45-176.44L66.45-176.44L73.83-174.65L73.83-174.65Q80.71-173.89 92.42-169.31L92.42-169.31L92.42-169.31Q81.47-175.93 66.45-176.44ZM100.57-162.69L98.53-163.96L102.09-161.16L100.57-162.69Z" transform="translate(305.5156950672646 238.0476457399103)"></path></g></svg></g> <!----></g>  <!----></svg>